<svg width="158" height="113" viewBox="0 0 158 113" fill="none" xmlns="http://www.w3.org/2000/svg">
<path d="M44.7423 112.04C37.8066 112.04 31.6868 110.567 26.383 107.62C21.0792 104.628 16.9314 100.48 13.9395 95.1766C10.9929 89.8728 9.51964 83.753 9.51964 76.8172V45.2664C9.51964 38.3307 10.9929 32.2109 13.9395 26.9071C16.9314 21.6033 21.0792 17.4781 26.383 14.5316C31.6868 11.5397 37.8066 10.0437 44.7423 10.0437C51.6781 10.0437 57.7752 11.5397 63.0336 14.5316C68.3374 17.4781 72.4853 21.6033 75.4772 26.9071C78.4691 32.2109 79.965 38.3307 79.965 45.2664V76.8172C79.965 83.753 78.4691 89.8728 75.4772 95.1766C72.4853 100.48 68.3374 104.628 63.0336 107.62C57.7752 110.567 51.6781 112.04 44.7423 112.04ZM44.7423 96.4685C48.1875 96.4685 51.3154 95.6525 54.126 94.0206C56.9365 92.3433 59.1578 90.1221 60.7897 87.3568C62.4217 84.5463 63.2376 81.4184 63.2376 77.9732V44.0425C63.2376 40.5519 62.4217 37.424 60.7897 34.6588C59.1578 31.8482 56.9365 29.627 54.126 27.9951C51.3154 26.3178 48.1875 25.4792 44.7423 25.4792C41.2971 25.4792 38.1692 26.3178 35.3587 27.9951C32.5481 29.627 30.3269 31.8482 28.6949 34.6588C27.063 37.424 26.247 40.5519 26.247 44.0425V77.9732C26.247 81.4184 27.063 84.5463 28.6949 87.3568C30.3269 90.1221 32.5481 92.3433 35.3587 94.0206C38.1692 95.6525 41.2971 96.4685 44.7423 96.4685ZM116.031 110V29.967L97.672 41.1866V23.0992L116.031 12.0837H132.759V110H116.031Z" fill="#26CCE1"/>
</svg>
