<svg width="152" height="391" viewBox="0 0 152 391" fill="none" xmlns="http://www.w3.org/2000/svg">
<path d="M2.74233 112.04C-4.19341 112.04 -10.3132 110.567 -15.617 107.62C-20.9208 104.628 -25.0686 100.48 -28.0605 95.1766C-31.0071 89.8728 -32.4804 83.753 -32.4804 76.8172V45.2664C-32.4804 38.3307 -31.0071 32.2109 -28.0605 26.9071C-25.0686 21.6033 -20.9208 17.4781 -15.617 14.5316C-10.3132 11.5397 -4.19341 10.0437 2.74233 10.0437C9.67807 10.0437 15.7752 11.5397 21.0336 14.5316C26.3374 17.4781 30.4853 21.6033 33.4772 26.9071C36.4691 32.2109 37.965 38.3307 37.965 45.2664V76.8172C37.965 83.753 36.4691 89.8728 33.4772 95.1766C30.4853 100.48 26.3374 104.628 21.0336 107.62C15.7752 110.567 9.67807 112.04 2.74233 112.04ZM2.74233 96.4685C6.18754 96.4685 9.31542 95.6525 12.126 94.0206C14.9365 92.3433 17.1578 90.1221 18.7897 87.3568C20.4217 84.5463 21.2376 81.4184 21.2376 77.9732V44.0425C21.2376 40.5519 20.4217 37.424 18.7897 34.6588C17.1578 31.8482 14.9365 29.627 12.126 27.9951C9.31542 26.3178 6.18754 25.4792 2.74233 25.4792C-0.702874 25.4792 -3.83076 26.3178 -6.64132 27.9951C-9.45188 29.627 -11.6731 31.8482 -13.3051 34.6588C-14.937 37.424 -15.753 40.5519 -15.753 44.0425V77.9732C-15.753 81.4184 -14.937 84.5463 -13.3051 87.3568C-11.6731 90.1221 -9.45188 92.3433 -6.64132 94.0206C-3.83076 95.6525 -0.702874 96.4685 2.74233 96.4685ZM74.0313 110V29.967L55.672 41.1866V23.0992L74.0313 12.0837H90.7587V110H74.0313Z" fill="#B1EAF2"/>
<path d="M11.0508 190.249L-0.778673 177L-12.6082 190.249" stroke="#B1EAF2" stroke-width="7.57087"/>
<path d="M11.0508 322.221L-0.778673 308.972L-12.6082 322.221" stroke="#B1EAF2" stroke-width="7.57087"/>
<path d="M11.0508 256.235L-0.778673 242.986L-12.6082 256.235" stroke="#B1EAF2" stroke-width="7.57087"/>
<path d="M11.0508 388.208L-0.778673 374.959L-12.6082 388.208" stroke="#B1EAF2" stroke-width="7.57087"/>
<path d="M28.0843 222.924L16.2548 209.675L4.42529 222.924" stroke="#B1EAF2" stroke-width="7.57087"/>
<path d="M28.0843 354.896L16.2548 341.647L4.42529 354.896" stroke="#B1EAF2" stroke-width="7.57087"/>
<path d="M28.0843 288.91L16.2548 275.661L4.42529 288.91" stroke="#B1EAF2" stroke-width="7.57087"/>
<path d="M46.0662 190.249L34.2367 177L22.4072 190.249" stroke="#B1EAF2" stroke-width="7.57087"/>
<path d="M46.0662 322.221L34.2367 308.972L22.4072 322.221" stroke="#B1EAF2" stroke-width="7.57087"/>
<path d="M46.0662 256.235L34.2367 242.986L22.4072 256.235" stroke="#B1EAF2" stroke-width="7.57087"/>
<path d="M46.0662 388.208L34.2367 374.959L22.4072 388.208" stroke="#B1EAF2" stroke-width="7.57087"/>
<path d="M63.0991 222.924L51.2697 209.675L39.4402 222.924" stroke="#B1EAF2" stroke-width="7.57087"/>
<path d="M63.0991 354.896L51.2697 341.647L39.4402 354.896" stroke="#B1EAF2" stroke-width="7.57087"/>
<path d="M63.0991 288.91L51.2697 275.661L39.4402 288.91" stroke="#B1EAF2" stroke-width="7.57087"/>
<path d="M81.0808 190.249L69.2514 177L57.4219 190.249" stroke="#B1EAF2" stroke-width="7.57087"/>
<path d="M81.0808 322.221L69.2514 308.972L57.4219 322.221" stroke="#B1EAF2" stroke-width="7.57087"/>
<path d="M81.0808 256.235L69.2514 242.986L57.4219 256.235" stroke="#B1EAF2" stroke-width="7.57087"/>
<path d="M81.0808 388.208L69.2514 374.959L57.4219 388.208" stroke="#B1EAF2" stroke-width="7.57087"/>
<path d="M115.419 190.249L103.589 177L91.76 190.249" stroke="#B1EAF2" stroke-width="7.57087"/>
<path d="M115.419 322.221L103.589 308.972L91.76 322.221" stroke="#B1EAF2" stroke-width="7.57087"/>
<path d="M115.419 256.235L103.589 242.986L91.76 256.235" stroke="#B1EAF2" stroke-width="7.57087"/>
<path d="M115.419 388.208L103.589 374.959L91.76 388.208" stroke="#B1EAF2" stroke-width="7.57087"/>
<path d="M99.0619 222.924L86.7592 209.675L74.4565 222.924" stroke="#B1EAF2" stroke-width="7.57087"/>
<path d="M99.0619 354.896L86.7592 341.647L74.4565 354.896" stroke="#B1EAF2" stroke-width="7.57087"/>
<path d="M99.0619 288.91L86.7592 275.661L74.4565 288.91" stroke="#B1EAF2" stroke-width="7.57087"/>
</svg>
