<svg width="150" height="424" viewBox="0 0 150 424" fill="none" xmlns="http://www.w3.org/2000/svg">
<path d="M0.742332 112.04C-6.19341 112.04 -12.3132 110.567 -17.617 107.62C-22.9208 104.628 -27.0686 100.48 -30.0605 95.1766C-33.0071 89.8728 -34.4804 83.753 -34.4804 76.8172V45.2664C-34.4804 38.3307 -33.0071 32.2109 -30.0605 26.9071C-27.0686 21.6033 -22.9208 17.4781 -17.617 14.5316C-12.3132 11.5397 -6.19341 10.0437 0.742332 10.0437C7.67807 10.0437 13.7752 11.5397 19.0336 14.5316C24.3374 17.4781 28.4853 21.6033 31.4772 26.9071C34.4691 32.2109 35.965 38.3307 35.965 45.2664V76.8172C35.965 83.753 34.4691 89.8728 31.4772 95.1766C28.4853 100.48 24.3374 104.628 19.0336 107.62C13.7752 110.567 7.67807 112.04 0.742332 112.04ZM0.742332 96.4685C4.18754 96.4685 7.31542 95.6525 10.126 94.0206C12.9365 92.3433 15.1578 90.1221 16.7897 87.3568C18.4217 84.5463 19.2376 81.4184 19.2376 77.9732V44.0425C19.2376 40.5519 18.4217 37.424 16.7897 34.6588C15.1578 31.8482 12.9365 29.627 10.126 27.9951C7.31542 26.3178 4.18754 25.4792 0.742332 25.4792C-2.70287 25.4792 -5.83076 26.3178 -8.64132 27.9951C-11.4519 29.627 -13.6731 31.8482 -15.3051 34.6588C-16.937 37.424 -17.753 40.5519 -17.753 44.0425V77.9732C-17.753 81.4184 -16.937 84.5463 -15.3051 87.3568C-13.6731 90.1221 -11.4519 92.3433 -8.64132 94.0206C-5.83076 95.6525 -2.70287 96.4685 0.742332 96.4685ZM83.0469 111.836C78.1511 111.836 73.5272 110.884 69.1754 108.98C64.8236 107.076 61.0384 104.379 57.8198 100.888C54.6466 97.3978 52.3574 93.2726 50.9521 88.5128L66.7955 84.229C67.9288 88.1275 69.9914 91.142 72.9833 93.2726C76.0205 95.3579 79.3524 96.3778 82.9789 96.3325C86.1974 96.3325 89.076 95.5845 91.6146 94.0886C94.1531 92.5926 96.1477 90.5754 97.5983 88.0368C99.049 85.4529 99.7743 82.5744 99.7743 79.4011C99.7743 74.5507 98.2103 70.4935 95.0824 67.2296C91.9546 63.9657 87.92 62.3338 82.9789 62.3338C81.4829 62.3338 80.0097 62.5378 78.5591 62.9458C77.1538 63.3537 75.7938 63.9204 74.4792 64.6457L66.9995 51.7262L99.9103 23.5752L101.338 27.5191H54.7599V12.0837H114.802V27.5871L88.3507 53.0181L88.2147 48.1903C94.1531 48.5983 99.2076 50.2529 103.378 53.1541C107.594 56.0553 110.813 59.7952 113.034 64.3737C115.3 68.9522 116.434 73.9613 116.434 79.4011C116.434 85.5662 114.915 91.0967 111.878 95.9925C108.886 100.888 104.851 104.764 99.7743 107.62C94.7424 110.431 89.1667 111.836 83.0469 111.836Z" fill="#B4CCCF"/>
<path d="M10.0508 223.249L-1.77867 210L-13.6082 223.249" stroke="#B4CCCF" stroke-width="7.57087"/>
<path d="M10.0508 355.221L-1.77867 341.972L-13.6082 355.221" stroke="#B4CCCF" stroke-width="7.57087"/>
<path d="M10.0508 289.235L-1.77867 275.986L-13.6082 289.235" stroke="#B4CCCF" stroke-width="7.57087"/>
<path d="M10.0508 421.208L-1.77867 407.959L-13.6082 421.208" stroke="#B4CCCF" stroke-width="7.57087"/>
<path d="M27.0843 255.924L15.2548 242.675L3.42529 255.924" stroke="#B4CCCF" stroke-width="7.57087"/>
<path d="M27.0843 387.896L15.2548 374.647L3.42529 387.896" stroke="#B4CCCF" stroke-width="7.57087"/>
<path d="M27.0843 321.91L15.2548 308.661L3.42529 321.91" stroke="#B4CCCF" stroke-width="7.57087"/>
<path d="M45.0662 223.249L33.2367 210L21.4072 223.249" stroke="#B4CCCF" stroke-width="7.57087"/>
<path d="M45.0662 355.221L33.2367 341.972L21.4072 355.221" stroke="#B4CCCF" stroke-width="7.57087"/>
<path d="M45.0662 289.235L33.2367 275.986L21.4072 289.235" stroke="#B4CCCF" stroke-width="7.57087"/>
<path d="M45.0662 421.208L33.2367 407.959L21.4072 421.208" stroke="#B4CCCF" stroke-width="7.57087"/>
<path d="M62.0991 255.924L50.2697 242.675L38.4402 255.924" stroke="#B4CCCF" stroke-width="7.57087"/>
<path d="M62.0991 387.896L50.2697 374.647L38.4402 387.896" stroke="#B4CCCF" stroke-width="7.57087"/>
<path d="M62.0991 321.91L50.2697 308.661L38.4402 321.91" stroke="#B4CCCF" stroke-width="7.57087"/>
<path d="M80.0808 223.249L68.2514 210L56.4219 223.249" stroke="#B4CCCF" stroke-width="7.57087"/>
<path d="M80.0808 355.221L68.2514 341.972L56.4219 355.221" stroke="#B4CCCF" stroke-width="7.57087"/>
<path d="M80.0808 289.235L68.2514 275.986L56.4219 289.235" stroke="#B4CCCF" stroke-width="7.57087"/>
<path d="M80.0808 421.208L68.2514 407.959L56.4219 421.208" stroke="#B4CCCF" stroke-width="7.57087"/>
<path d="M114.419 223.249L102.589 210L90.76 223.249" stroke="#B4CCCF" stroke-width="7.57087"/>
<path d="M114.419 355.221L102.589 341.972L90.76 355.221" stroke="#B4CCCF" stroke-width="7.57087"/>
<path d="M114.419 289.235L102.589 275.986L90.76 289.235" stroke="#B4CCCF" stroke-width="7.57087"/>
<path d="M114.419 421.208L102.589 407.959L90.76 421.208" stroke="#B4CCCF" stroke-width="7.57087"/>
<path d="M98.0619 255.924L85.7592 242.675L73.4565 255.924" stroke="#B4CCCF" stroke-width="7.57087"/>
<path d="M98.0619 387.896L85.7592 374.647L73.4565 387.896" stroke="#B4CCCF" stroke-width="7.57087"/>
<path d="M98.0619 321.91L85.7592 308.661L73.4565 321.91" stroke="#B4CCCF" stroke-width="7.57087"/>
</svg>
