<svg width="142" height="361" viewBox="0 0 142 361" fill="none" xmlns="http://www.w3.org/2000/svg">
<path d="M29.659 192.924L17.8295 179.675L6 192.924" stroke="#E8F3F4" stroke-width="7.57087"/>
<path d="M29.659 324.896L17.8295 311.647L6 324.896" stroke="#E8F3F4" stroke-width="7.57087"/>
<path d="M29.659 258.91L17.8295 245.661L6 258.91" stroke="#E8F3F4" stroke-width="7.57087"/>
<path d="M47.6396 160.249L35.8101 147L23.9806 160.249" stroke="#E8F3F4" stroke-width="7.57087"/>
<path d="M47.6396 292.221L35.8101 278.972L23.9806 292.221" stroke="#E8F3F4" stroke-width="7.57087"/>
<path d="M47.6396 226.235L35.8101 212.986L23.9806 226.235" stroke="#E8F3F4" stroke-width="7.57087"/>
<path d="M47.6396 358.208L35.8101 344.959L23.9806 358.208" stroke="#E8F3F4" stroke-width="7.57087"/>
<path d="M64.6743 192.924L52.8449 179.675L41.0154 192.924" stroke="#E8F3F4" stroke-width="7.57087"/>
<path d="M64.6743 324.896L52.8449 311.647L41.0154 324.896" stroke="#E8F3F4" stroke-width="7.57087"/>
<path d="M64.6743 258.91L52.8449 245.661L41.0154 258.91" stroke="#E8F3F4" stroke-width="7.57087"/>
<path d="M82.6549 160.249L70.8255 147L58.996 160.249" stroke="#E8F3F4" stroke-width="7.57087"/>
<path d="M82.6549 292.221L70.8255 278.972L58.996 292.221" stroke="#E8F3F4" stroke-width="7.57087"/>
<path d="M82.6549 226.235L70.8255 212.986L58.996 226.235" stroke="#E8F3F4" stroke-width="7.57087"/>
<path d="M82.6549 358.208L70.8255 344.959L58.996 358.208" stroke="#E8F3F4" stroke-width="7.57087"/>
<path d="M99.689 192.924L87.8595 179.675L76.03 192.924" stroke="#E8F3F4" stroke-width="7.57087"/>
<path d="M99.689 324.896L87.8595 311.647L76.03 324.896" stroke="#E8F3F4" stroke-width="7.57087"/>
<path d="M99.689 258.91L87.8595 245.661L76.03 258.91" stroke="#E8F3F4" stroke-width="7.57087"/>
<path d="M117.671 160.249L105.841 147L94.0118 160.249" stroke="#E8F3F4" stroke-width="7.57087"/>
<path d="M117.671 292.221L105.841 278.972L94.0118 292.221" stroke="#E8F3F4" stroke-width="7.57087"/>
<path d="M117.671 226.235L105.841 212.986L94.0118 226.235" stroke="#E8F3F4" stroke-width="7.57087"/>
<path d="M117.671 358.208L105.841 344.959L94.0118 358.208" stroke="#E8F3F4" stroke-width="7.57087"/>
<path d="M152.008 160.249L140.179 147L128.349 160.249" stroke="#E8F3F4" stroke-width="7.57087"/>
<path d="M152.008 292.221L140.179 278.972L128.349 292.221" stroke="#E8F3F4" stroke-width="7.57087"/>
<path d="M152.008 226.235L140.179 212.986L128.349 226.235" stroke="#E8F3F4" stroke-width="7.57087"/>
<path d="M152.008 358.208L140.179 344.959L128.349 358.208" stroke="#E8F3F4" stroke-width="7.57087"/>
<path d="M135.651 192.924L123.349 179.675L111.046 192.924" stroke="#E8F3F4" stroke-width="7.57087"/>
<path d="M135.651 324.896L123.349 311.647L111.046 324.896" stroke="#E8F3F4" stroke-width="7.57087"/>
<path d="M135.651 258.91L123.349 245.661L111.046 258.91" stroke="#E8F3F4" stroke-width="7.57087"/>
<path d="M44.7423 112.04C37.8066 112.04 31.6868 110.567 26.383 107.62C21.0792 104.628 16.9314 100.48 13.9395 95.1766C10.9929 89.8728 9.51964 83.753 9.51964 76.8172V45.2664C9.51964 38.3307 10.9929 32.2109 13.9395 26.9071C16.9314 21.6033 21.0792 17.4781 26.383 14.5316C31.6868 11.5397 37.8066 10.0437 44.7423 10.0437C51.6781 10.0437 57.7752 11.5397 63.0336 14.5316C68.3374 17.4781 72.4853 21.6033 75.4772 26.9071C78.4691 32.2109 79.965 38.3307 79.965 45.2664V76.8172C79.965 83.753 78.4691 89.8728 75.4772 95.1766C72.4853 100.48 68.3374 104.628 63.0336 107.62C57.7752 110.567 51.6781 112.04 44.7423 112.04ZM44.7423 96.4685C48.1875 96.4685 51.3154 95.6525 54.126 94.0206C56.9365 92.3433 59.1578 90.1221 60.7897 87.3568C62.4217 84.5463 63.2376 81.4184 63.2376 77.9732V44.0425C63.2376 40.5519 62.4217 37.424 60.7897 34.6588C59.1578 31.8482 56.9365 29.627 54.126 27.9951C51.3154 26.3178 48.1875 25.4792 44.7423 25.4792C41.2971 25.4792 38.1692 26.3178 35.3587 27.9951C32.5481 29.627 30.3269 31.8482 28.6949 34.6588C27.063 37.424 26.247 40.5519 26.247 44.0425V77.9732C26.247 81.4184 27.063 84.5463 28.6949 87.3568C30.3269 90.1221 32.5481 92.3433 35.3587 94.0206C38.1692 95.6525 41.2971 96.4685 44.7423 96.4685ZM96.312 109.864V95.5845L138.198 58.2539C141.462 55.3527 143.729 52.6101 144.998 50.0262C146.267 47.4423 146.902 44.9491 146.902 42.5465C146.902 39.2826 146.2 36.3814 144.794 33.8428C143.389 31.2589 141.44 29.219 138.946 27.7231C136.499 26.2271 133.665 25.4792 130.447 25.4792C127.047 25.4792 124.032 26.2725 121.403 27.8591C118.819 29.4003 116.802 31.4629 115.351 34.0468C113.901 36.6307 113.221 39.4186 113.311 42.4105H96.448C96.448 35.8828 97.8986 30.1936 100.8 25.3432C103.746 20.4927 107.781 16.7301 112.903 14.0556C118.071 11.381 124.032 10.0437 130.787 10.0437C137.043 10.0437 142.664 11.449 147.65 14.2596C152.637 17.0248 156.558 20.878 159.414 25.8191C162.27 30.715 163.698 36.3588 163.698 42.7505C163.698 47.4197 163.063 51.3409 161.794 54.5141C160.524 57.6873 158.62 60.6112 156.082 63.2857C153.589 65.9603 150.483 68.9295 146.766 72.1934L117.051 98.5084L115.555 94.4286H163.698V109.864H96.312Z" fill="#E8F3F4"/>
</svg>
