<svg width="16" height="16" viewBox="0 0 16 16" fill="none" xmlns="http://www.w3.org/2000/svg">
<path fill-rule="evenodd" clip-rule="evenodd" d="M13.7742 15.3167C14.2002 15.7427 14.891 15.7427 15.317 15.3167C15.743 14.8907 15.743 14.2 15.317 13.774L9.54292 7.9999L15.317 2.22584C15.743 1.79981 15.743 1.10908 15.317 0.683058C14.891 0.257032 14.2002 0.257032 13.7742 0.683058L8.00014 6.45713L2.22607 0.683046C1.80004 0.257018 1.10932 0.257018 0.68329 0.683046C0.257263 1.10907 0.257263 1.79979 0.68329 2.22583L6.45737 7.9999L0.683289 13.774C0.257263 14.2 0.257263 14.8907 0.683289 15.3167C1.10932 15.7428 1.80004 15.7428 2.22607 15.3167L8.00014 9.54268L13.7742 15.3167Z" fill="#133135"/>
</svg>
