<svg width="83" height="44" viewBox="0 0 83 44" fill="none" xmlns="http://www.w3.org/2000/svg">
<path d="M18.1957 13H21.4207V9.67527H23.0166C25.9091 9.67527 28.0203 8.22901 28.0203 5.48611V5.45286C28.0203 2.8762 26.1252 1.36345 23.1828 1.36345H18.1957V13ZM21.4207 7.14848V4.0731H22.9334C24.0971 4.0731 24.7953 4.60506 24.7953 5.60248V5.63572C24.7953 6.55003 24.0971 7.14848 22.9501 7.14848H21.4207ZM29.381 13H32.6059V9.47579H33.9857H34.0189L36.3629 13H40.0866L37.3104 8.94383C38.7567 8.32876 39.7042 7.14848 39.7042 5.36975V5.3365C39.7042 4.18947 39.3551 3.29179 38.6736 2.62684C37.8923 1.82891 36.6621 1.36345 34.8834 1.36345H29.381V13ZM32.6059 6.94899V4.15622H34.7171C35.7977 4.15622 36.4626 4.62168 36.4626 5.53598V5.56923C36.4626 6.41704 35.8309 6.94899 34.7338 6.94899H32.6059ZM47.1807 13.2327C50.7714 13.2327 53.4645 10.5231 53.4645 7.18172V7.14848C53.4645 3.80712 50.8047 1.13072 47.214 1.13072C43.6233 1.13072 40.9302 3.84037 40.9302 7.18172V7.21497C40.9302 10.5563 43.59 13.2327 47.1807 13.2327ZM47.214 10.3236C45.4519 10.3236 44.2383 8.86071 44.2383 7.18172V7.14848C44.2383 5.46949 45.4186 4.03985 47.1807 4.03985C48.9595 4.03985 50.173 5.50274 50.173 7.18172V7.21497C50.173 8.89396 48.9927 10.3236 47.214 10.3236Z" fill="#F6F9FA"/>
<path d="M34.7037 27.9339C37.5298 27.9339 39.4082 26.5208 39.4082 24.1437V24.1104C39.4082 21.9327 37.7459 21.0683 35.0695 20.4865C33.457 20.1207 33.058 19.888 33.058 19.3561V19.3228C33.058 18.9072 33.4403 18.5747 34.2216 18.5747C35.2523 18.5747 36.416 18.9737 37.4799 19.7218L39.0924 17.4443C37.829 16.4303 36.283 15.8983 34.3048 15.8983C31.512 15.8983 29.7998 17.461 29.7998 19.622V19.6553C29.7998 22.0491 31.7115 22.7473 34.1884 23.3125C35.7676 23.6782 36.15 23.9442 36.15 24.4263V24.4595C36.15 24.9582 35.6845 25.2575 34.8201 25.2575C33.4736 25.2575 32.1936 24.7754 31.0465 23.8611L29.2512 26.0055C30.6808 27.2855 32.6424 27.9339 34.7037 27.9339ZM43.6631 27.8175H46.4725L48.7998 21.1182L51.1437 27.8175H53.9531L57.8431 16.0978H54.5017L52.4736 22.8304L50.2294 16.0646H47.4533L45.2091 22.8304L43.181 16.0978H39.7732L43.6631 27.8175ZM59.1927 27.7344H62.4343V16.0978H59.1927V27.7344ZM64.5646 27.7344H67.7231V21.0849L70.6821 25.6065H70.7486L73.7242 21.0517V27.7344H76.9326V16.0978H73.5248L70.7486 20.6028L67.9725 16.0978H64.5646V27.7344Z" fill="#F6F9FA"/>
<path d="M18.1957 42.4666H27.0561V39.6405H21.4207V30.83H18.1957V42.4666ZM27.5085 42.4666H30.8997L31.7309 40.3886H36.2192L37.0671 42.4666H40.5248L35.5709 30.7469H32.4623L27.5085 42.4666ZM32.6784 37.8784L33.9917 34.5703L35.2883 37.8784H32.6784ZM41.6539 42.4666H47.655C50.4312 42.4666 52.0603 41.253 52.0603 39.2582V39.2249C52.0603 37.6457 51.1626 36.8478 49.7496 36.3823C50.7803 35.9335 51.5449 35.1355 51.5449 33.789V33.7558C51.5449 32.9578 51.2623 32.3428 50.7969 31.8773C50.1153 31.1957 49.0846 30.83 47.6218 30.83H41.6539V42.4666ZM44.7957 35.468V33.4233H46.8903C47.8545 33.4233 48.3532 33.789 48.3532 34.4207V34.454C48.3532 35.1355 47.8046 35.468 46.8238 35.468H44.7957ZM44.7957 39.8733V37.7288H47.256C48.3366 37.7288 48.8353 38.1444 48.8353 38.7761V38.8094C48.8353 39.4909 48.2701 39.8733 47.2893 39.8733H44.7957Z" fill="#F6F9FA"/>
<circle cx="9.92861" cy="2.52432" r="2.52432" fill="#F6F9FA"/>
<rect x="0.211914" y="9.52075" width="8.32479" height="3.74374" transform="rotate(-45 0.211914 9.52075)" fill="#26CCE1"/>
<rect x="2.4707" width="8.82812" height="3.49416" transform="rotate(45 2.4707 0)" fill="#F6F9FA"/>
</svg>
