<svg width="75" height="44" viewBox="0 0 75 44" fill="none" xmlns="http://www.w3.org/2000/svg">
<g clip-path="url(#clip0_191_1549)">
<path d="M9.53058 5.03153C10.8381 5.03153 11.8981 3.95891 11.8981 2.63576C11.8981 1.31261 10.8381 0.23999 9.53058 0.23999C8.22305 0.23999 7.16309 1.31261 7.16309 2.63576C7.16309 3.95891 8.22305 5.03153 9.53058 5.03153Z" fill="#224448"/>
<path d="M3.57433 6.23642L0 9.83521L2.38176 12.2333L5.95608 8.63447L3.57433 6.23642Z" fill="#26CCE1"/>
<path d="M5.95612 3.83868L2.38149 0.23999L0 2.63777L3.57423 6.23646L5.95612 8.63465L8.33761 6.23646L5.95612 3.83868Z" fill="#224448"/>
<path d="M15.1992 12.2329H18.5008V8.80647H20.1341C23.093 8.80647 25.2562 7.31691 25.2562 4.48877V4.45454C25.2562 1.7975 23.3161 0.239502 20.3045 0.239502H15.1992V12.2329ZM18.5008 6.20216V3.03262H20.049C21.2401 3.03262 21.955 3.58054 21.955 4.60874V4.64295C21.955 5.5854 21.2401 6.20216 20.0662 6.20216H18.5008Z" fill="#224448"/>
<path d="M26.6494 12.2329H29.951V8.60075H31.3976L33.7967 12.2329H37.6088L34.7667 8.05243C36.2461 7.41876 37.2174 6.20055 37.2174 4.36879V4.33457C37.2174 3.15219 36.8599 2.22705 36.1622 1.54186C35.3625 0.71938 34.1034 0.239502 32.2837 0.239502H26.6494V12.2329ZM29.951 5.99604V3.11757H32.1101C33.2161 3.11757 33.8966 3.59744 33.8966 4.53989V4.57411C33.8966 5.44772 33.2501 5.99604 32.1273 5.99604H29.951Z" fill="#224448"/>
<path d="M44.8697 12.4728C48.5455 12.4728 51.302 9.6801 51.302 6.23641V6.20219C51.302 2.7585 48.5795 0 44.9045 0C41.2295 0 38.4697 2.79272 38.4697 6.23762V6.27184C38.4697 9.71432 41.1939 12.4728 44.8697 12.4728ZM44.9041 9.47479C43.1 9.47479 41.8576 7.96671 41.8576 6.23641V6.20219C41.8576 4.47108 43.066 2.99803 44.8697 2.99803C46.6906 2.99803 47.9329 4.50611 47.9329 6.23641V6.27063C47.9329 8.00093 46.7246 9.47479 44.9041 9.47479Z" fill="#224448"/>
<path d="M31.6943 27.7967C34.5868 27.7967 36.5097 26.3406 36.5097 23.8917V23.8579C36.5097 21.6131 34.8084 20.7221 32.0686 20.1223C30.418 19.7455 30.0094 19.5059 30.0094 18.9576V18.923C30.0094 18.4951 30.4008 18.1525 31.2009 18.1525C32.2557 18.1525 33.4469 18.5635 34.5361 19.3344L36.1866 16.987C34.8935 15.9403 33.3105 15.3936 31.2857 15.3936C28.4268 15.3936 26.6743 17.0039 26.6743 19.2314V19.266C26.6743 21.733 28.6311 22.4524 31.1665 23.0354C32.7831 23.4122 33.1746 23.6864 33.1746 24.1832V24.2174C33.1746 24.7315 32.6984 25.0399 31.8151 25.0399C30.4368 25.0399 29.1265 24.5431 27.9526 23.6006L26.1133 25.8108C27.5759 27.1285 29.584 27.7967 31.6943 27.7967Z" fill="#224448"/>
<path d="M40.8649 27.6768H43.7406L46.1229 20.7709L48.522 27.6756H51.3977L55.3797 15.5981H51.9594L49.8834 22.537L47.5863 15.5635H44.7446L42.4475 22.5366L40.3715 15.5977H36.8828L40.8649 27.6768Z" fill="#224448"/>
<path d="M56.7627 27.591H60.0814V15.5977H56.7627V27.591Z" fill="#224448"/>
<path d="M62.2607 27.591H65.4939V20.7378L68.5228 25.3981H68.5911L71.6372 20.7036V27.591H74.9215V15.5977H71.4328L68.5911 20.241L65.749 15.5977H62.2607V27.591Z" fill="#224448"/>
<path d="M15.1992 43.0799H24.2694V40.1668H18.5012V31.0862H15.1992V43.0799Z" fill="#224448"/>
<path d="M25.0791 43.08H28.5506L29.4015 40.9382H33.9961L34.8638 43.08H38.4032L33.3324 31.0005H30.15L25.0791 43.08ZM30.3715 38.3508L31.7158 34.9414L33.0429 38.3508H30.3715Z" fill="#224448"/>
<path d="M39.2129 43.0799H45.3561C48.1979 43.0799 49.8652 41.8291 49.8652 39.7727V39.7385C49.8652 38.1112 48.9456 37.2888 47.5001 36.8089C48.5553 36.3463 49.3394 35.5239 49.3394 34.1361V34.1019C49.3394 33.2794 49.0503 32.6454 48.5737 32.1659C47.876 31.4634 46.8208 31.0862 45.3233 31.0862H39.2129V43.0799ZM42.4289 35.8677V33.7605H44.5732C45.5601 33.7605 46.0707 34.1374 46.0707 34.7883V34.8226C46.0707 35.5251 45.5109 35.8693 44.5049 35.8693L42.4289 35.8677ZM42.4289 40.408V38.1978H44.9479C46.0539 38.1978 46.5645 38.6262 46.5645 39.2771V39.3118C46.5645 40.0139 45.9859 40.408 44.9819 40.408H42.4289Z" fill="#224448"/>
</g>
<defs>
<clipPath id="clip0_191_1549">
<rect width="74.9217" height="43.08" fill="white"/>
</clipPath>
</defs>
</svg>
