<svg width="20" height="15" viewBox="0 0 20 15" fill="none" xmlns="http://www.w3.org/2000/svg">
<path d="M11.936 10.1015C11.4203 10.6172 10.7327 10.9011 9.99991 10.9011C9.26716 10.9011 8.57953 10.6172 8.06382 10.1015L5.12754 7.16431L0 12.2919V12.6018C0 13.5056 0.738837 14.2444 1.64264 14.2444H18.3573C19.2611 14.2444 19.9999 13.5056 19.9999 12.6018V12.3248L14.8557 7.18151L11.936 10.1015Z" fill="#224448"/>
<path d="M0.731903 2.76866C0.461901 2.49865 0 2.68965 0 3.07166V10.7683L4.3663 6.40201L0.731903 2.76866Z" fill="#224448"/>
<path d="M19.9999 3.07154C19.9999 2.68952 19.5381 2.49853 19.268 2.76854L15.6172 6.41938L19.9999 10.8021V3.07154Z" fill="#224448"/>
<path d="M9.99983 9.8063C10.4209 9.8063 10.842 9.64655 11.1615 9.32706L19.735 0.753597C19.4415 0.302142 18.9336 0.000868204 18.3571 0.000868204L1.64248 0C1.06687 0 0.558099 0.301274 0.264648 0.752729L8.83812 9.3262C9.15761 9.64656 9.57869 9.80632 9.99978 9.80632L9.99983 9.8063Z" fill="#224448"/>
</svg>
