<svg width="20" height="20" viewBox="0 0 20 20" fill="none" xmlns="http://www.w3.org/2000/svg">
<path fill-rule="evenodd" clip-rule="evenodd" d="M19.4673 16.9005C19.8741 16.4937 20.0638 15.9199 19.9809 15.3518C19.8968 14.7837 19.5502 14.2871 19.0446 14.0155C17.7754 13.3315 16.2551 12.5123 15.4019 12.0521C15.0178 11.8453 14.5395 11.9464 14.2725 12.2907C13.66 13.0816 12.7317 13.5633 11.7329 13.6111C10.7342 13.6588 9.76494 13.2668 9.07864 12.5384C8.41962 11.8373 7.7174 11.092 7.06859 10.4034C6.44366 9.73987 6.14481 8.83313 6.25276 7.92753C6.35957 7.02193 6.86294 6.21067 7.62537 5.71184H7.6265C8.01282 5.45959 8.14122 4.95281 7.92192 4.54604C7.45718 3.68364 6.65726 2.19855 5.9869 0.955414C5.7142 0.449776 5.2188 0.102086 4.65065 0.0191269C4.0825 -0.0638323 3.50757 0.125935 3.10194 0.532706C2.31339 1.32125 1.41914 2.21551 0.798747 2.83476C0.216986 3.41653 -0.0704916 4.22782 0.0147365 5.04592C0.207899 6.8696 1.20895 10.2954 5.45741 14.5438C9.70688 18.7932 13.1317 19.7944 14.9552 19.9864C15.7722 20.0716 16.5846 19.783 17.1653 19.2024C17.7857 18.582 18.6799 17.6889 19.4685 16.8992L19.4673 16.9005Z" fill="#224448"/>
</svg>
