<svg width="19" height="18" viewBox="0 0 19 18" fill="none" xmlns="http://www.w3.org/2000/svg">
<path d="M7.25 0.25C8.97391 0.25 10.6272 0.934819 11.8462 2.15381C13.0652 3.37279 13.75 5.02609 13.75 6.75C13.75 8.36 13.16 9.84 12.19 10.98L12.46 11.25H13.25L18.25 16.25L16.75 17.75L11.75 12.75V11.96L11.48 11.69C10.3005 12.6968 8.80071 13.2499 7.25 13.25C5.52609 13.25 3.87279 12.5652 2.65381 11.3462C1.43482 10.1272 0.75 8.47391 0.75 6.75C0.75 5.02609 1.43482 3.37279 2.65381 2.15381C3.87279 0.934819 5.52609 0.25 7.25 0.25ZM7.25 2.25C4.75 2.25 2.75 4.25 2.75 6.75C2.75 9.25 4.75 11.25 7.25 11.25C9.75 11.25 11.75 9.25 11.75 6.75C11.75 4.25 9.75 2.25 7.25 2.25Z" fill="#F6F9FA"/>
</svg>
