<svg width="98" height="220" viewBox="0 0 98 220" fill="none" xmlns="http://www.w3.org/2000/svg">
<path d="M26.659 51.9244L14.8295 38.6754L3 51.9244" stroke="#F6F9FA" stroke-width="7.57087"/>
<path d="M26.659 183.896L14.8295 170.647L3 183.896" stroke="#F6F9FA" stroke-width="7.57087"/>
<path d="M26.659 117.91L14.8295 104.661L3 117.91" stroke="#F6F9FA" stroke-width="7.57087"/>
<path d="M44.6394 19.249L32.81 6L20.9805 19.249" stroke="#F6F9FA" stroke-width="7.57087"/>
<path d="M44.6394 151.221L32.81 137.972L20.9805 151.221" stroke="#F6F9FA" stroke-width="7.57087"/>
<path d="M44.6394 85.2349L32.81 71.9858L20.9805 85.2349" stroke="#F6F9FA" stroke-width="7.57087"/>
<path d="M44.6394 217.208L32.81 203.959L20.9805 217.208" stroke="#F6F9FA" stroke-width="7.57087"/>
<path d="M61.6746 51.9244L49.8451 38.6754L38.0156 51.9244" stroke="#F6F9FA" stroke-width="7.57087"/>
<path d="M61.6746 183.896L49.8451 170.647L38.0156 183.896" stroke="#F6F9FA" stroke-width="7.57087"/>
<path d="M61.6746 117.91L49.8451 104.661L38.0156 117.91" stroke="#F6F9FA" stroke-width="7.57087"/>
<path d="M79.6551 19.249L67.8256 6L55.9961 19.249" stroke="#F6F9FA" stroke-width="7.57087"/>
<path d="M79.6551 151.221L67.8256 137.972L55.9961 151.221" stroke="#F6F9FA" stroke-width="7.57087"/>
<path d="M79.6551 85.2349L67.8256 71.9858L55.9961 85.2349" stroke="#F6F9FA" stroke-width="7.57087"/>
<path d="M79.6551 217.208L67.8256 203.959L55.9961 217.208" stroke="#F6F9FA" stroke-width="7.57087"/>
<path d="M96.6892 51.9244L84.8598 38.6754L73.0303 51.9244" stroke="#F6F9FA" stroke-width="7.57087"/>
<path d="M96.6892 183.896L84.8598 170.647L73.0303 183.896" stroke="#F6F9FA" stroke-width="7.57087"/>
<path d="M96.6892 117.91L84.8598 104.661L73.0303 117.91" stroke="#F6F9FA" stroke-width="7.57087"/>
<path d="M114.671 19.249L102.841 6L91.0117 19.249" stroke="#F6F9FA" stroke-width="7.57087"/>
<path d="M114.671 151.221L102.841 137.972L91.0117 151.221" stroke="#F6F9FA" stroke-width="7.57087"/>
<path d="M114.671 85.2349L102.841 71.9858L91.0117 85.2349" stroke="#F6F9FA" stroke-width="7.57087"/>
<path d="M114.671 217.208L102.841 203.959L91.0117 217.208" stroke="#F6F9FA" stroke-width="7.57087"/>
</svg>
