<svg width="24" height="24" viewBox="0 0 24 24" fill="none" xmlns="http://www.w3.org/2000/svg">
<rect width="24" height="24" rx="12" fill="#26CCE1"/>
<path fill-rule="evenodd" clip-rule="evenodd" d="M13.4319 13.9089V12.9543C13.6466 12.8479 14.2609 12.1167 14.3253 11.5454C14.4943 11.5325 14.7597 11.3773 14.838 10.765C14.88 10.4361 14.7129 10.2514 14.6117 10.1932C14.6117 10.1932 14.8638 9.71447 14.8638 9.13646C14.8638 7.97759 14.4089 6.98865 13.4319 6.98865C13.4319 6.98865 13.0925 6.27271 12 6.27271C9.9753 6.27271 9.13622 7.57142 9.13622 9.13646C9.13622 9.66339 9.38822 10.1932 9.38822 10.1932C9.28704 10.2514 9.11999 10.4366 9.16199 10.765C9.24026 11.3773 9.50564 11.5325 9.6746 11.5454C9.73904 12.1167 10.3533 12.8479 10.5681 12.9543V13.9089C10.0908 15.3408 6.27246 14.3862 6.27246 17.7273H17.7275C17.7275 14.3862 13.9091 15.3408 13.4319 13.9089Z" fill="white"/>
</svg>
