<svg width="27" height="27" viewBox="0 0 27 27" fill="none" xmlns="http://www.w3.org/2000/svg">
<mask id="mask0_191:661" style="mask-type:alpha" maskUnits="userSpaceOnUse" x="4" y="4" width="19" height="19">
<path fill-rule="evenodd" clip-rule="evenodd" d="M13.5001 11.7818V15.2181H18.3608C17.6512 17.2181 15.7406 18.6545 13.5001 18.6545C10.6582 18.6545 8.34554 16.3418 8.34554 13.5C8.34554 10.6581 10.6582 8.34542 13.5001 8.34542C14.732 8.34542 15.9176 8.78699 16.8385 9.58938L19.0962 6.99837C17.5498 5.65131 15.5636 4.90906 13.5001 4.90906C8.76306 4.90906 4.90918 8.76294 4.90918 13.5C4.90918 18.237 8.76306 22.0909 13.5001 22.0909C18.2371 22.0909 22.091 18.237 22.091 13.5V11.7818H13.5001Z" fill="white"/>
</mask>
<g mask="url(#mask0_191:661)">
</g>
<path d="M19.3046 7.42505H7.69461C6.05458 7.42505 4.72461 8.75502 4.72461 10.395V16.6051C4.72461 18.2451 6.05458 19.5751 7.69461 19.5751H19.3046C20.9446 19.5751 22.2746 18.2451 22.2746 16.6051V10.395C22.2746 8.75502 20.9446 7.42505 19.3046 7.42505ZM14.2421 14.85L11.6096 16.2001V10.8L16.8746 13.5L14.2421 14.85Z" fill="#26CCE1"/>
</svg>
